<?xml version="1.0" encoding="utf-8"?>
<!-- Generator: Adobe Illustrator 16.0.0, SVG Export Plug-In . SVG Version: 6.00 Build 0)  -->
<!DOCTYPE svg PUBLIC "-//W3C//DTD SVG 1.1//EN" "http://www.w3.org/Graphics/SVG/1.1/DTD/svg11.dtd">
<svg version="1.1" id="Layer_1" xmlns="http://www.w3.org/2000/svg" xmlns:xlink="http://www.w3.org/1999/xlink" x="0px" y="0px"
	 width="2048px" height="2048px" viewBox="0 0 2048 2048" enable-background="new 0 0 2048 2048" xml:space="preserve">
<g>
	<defs>
		<rect id="SVGID_1_" width="2048" height="2048"/>
	</defs>
	<clipPath id="SVGID_2_">
		<use xlink:href="#SVGID_1_"  overflow="visible"/>
	</clipPath>
	<g clip-path="url(#SVGID_2_)">
		<linearGradient id="SVGID_3_" gradientUnits="userSpaceOnUse" x1="1086.3066" y1="-429.8584" x2="1027.4868" y2="942.6228">
			<stop  offset="0.3476" style="stop-color:#EE1E3F"/>
			<stop  offset="1" style="stop-color:#C54398"/>
		</linearGradient>
		<path fill="url(#SVGID_3_)" d="M2041.915,1399.02c0,355.07-287.821,642.91-642.888,642.91H648.973
			c-355.067,0-642.889-287.84-642.889-642.91V648.963C6.084,293.901,293.905,6.07,648.973,6.07h750.055
			c355.066,0,642.888,287.831,642.888,642.893V1399.02z"/>
		<g>
			<path fill="#FFFFFF" d="M377.923,200.223h383.615c71.477,0,136.252,10.771,194.326,32.283
				c58.073,21.53,107.722,51.515,148.889,89.963c41.166,38.458,73.009,84.305,95.585,137.592
				c22.572,53.277,33.851,111.681,33.851,175.193c0,66.861-11.182,127.788-33.546,182.741
				c-22.345,54.953-54.187,102.075-95.582,141.345c-41.358,39.291-91.123,69.696-149.196,91.197
				c-58.074,21.542-122.849,32.302-194.326,32.302H377.923V200.223z M761.539,852.153c32.187,0,59.874-6.893,83.061-20.679
				c23.206-13.806,42.315-31.344,57.366-52.674c15.03-21.311,26.116-44.9,33.239-70.826c7.084-25.905,10.646-50.988,10.646-75.228
				c0-29.238-4.5-56.198-13.479-80.86c-8.999-24.642-21.636-45.968-37.931-63.938c-16.294-17.96-35.748-31.976-58.284-41.99
				c-22.575-10.023-47.466-15.05-74.617-15.05H661.245v421.244H761.539z"/>
			<path fill="#FFFFFF" d="M1475.75,870.957c14.628,0,28.224-0.728,40.746-2.202c12.541-1.437,24.987-3.639,37.299-6.568
				c12.331-2.929,24.968-6.682,37.931-11.296c12.963-4.596,27.38-10.015,43.254-16.294l35.097,203.727
				c-74.367,43.043-155.457,64.583-243.209,64.583c-124.111,0-230.476-41.797-319.07-125.395
				c-92.787-86.909-139.793-199.112-141.038-336.609c0-66.862,11.488-128.502,34.465-184.929
				c22.976-56.408,54.762-104.994,95.295-145.74c40.516-40.735,88.365-72.492,143.548-95.277
				c55.162-22.776,114.921-34.168,179.276-34.168c91.522,0,174.679,21.312,249.488,63.952l-33.853,199.333
				c-61.425-23.407-117.008-35.116-166.734-35.116c-69.812,0-122.772,20.181-158.902,60.505
				c-36.151,40.325-54.227,97.053-54.227,170.195c0,36.342,4.901,68.854,14.725,97.479c9.804,28.625,24.145,52.866,42.928,72.683
				c18.804,19.875,41.895,35.021,69.274,45.475C1409.425,865.749,1440.654,870.957,1475.75,870.957z"/>
		</g>
		<g>
			<path d="M345.143,1465.288l349.036-106.325l-267.277-82.736l213.454-255.941l-226.034,181.381L6.084,1302.554v96.466
				c0,298.662,203.649,549.721,479.638,621.964l-87.101-195.378L345.143,1465.288z"/>
			<path d="M1386.294,1020.285l-0.823,0.556l239.438,255.386l-267.258,82.736l349.016,106.325l-53.439,360.317l-76.437,191.396
				c268.599-77.125,465.125-324.585,465.125-617.981v-91.2l-429.587-106.153L1386.294,1020.285z"/>
			<polygon fill="#434343" points="1008.596,1243.772 1003.713,1247.583 1016.37,1249.822 			"/>
			<polygon fill="#434343" points="1009.189,1243.238 694.179,955.74 1008.596,1243.772 			"/>
			<path fill="#434343" d="M747.427,1445.604L694.179,955.74l-53.823,64.545l-213.454,255.941l267.277,82.736l-349.036,106.325
				l53.479,360.317l87.101,195.378c52.138,13.651,106.842,20.946,163.25,20.946H736.8l-42.622-511.676L747.427,1445.604z"/>
			<path fill="#434343" d="M1706.666,1465.288l-349.016-106.325l267.258-82.736l-239.438-255.386l-62.4-66.556l-53.191,490.534
				l72.032,82.466l-45.858,514.645h102.975c61.674,0,121.316-8.711,177.763-24.929l76.437-191.396L1706.666,1465.288z"/>
			<polygon fill="#FFFFFF" points="826.237,1920.136 906.58,1685.983 920.403,1645.697 920.403,1645.697 948.55,1563.65 
				937.023,1543.221 937.023,1543.221 933.232,1536.496 841.536,1374.223 747.638,1447.556 747.427,1445.604 694.179,1530.254 
				736.8,2041.93 826.237,2041.93 826.237,1940.872 			"/>
			<polygon fill="#FFFFFF" points="1269.879,1444.819 1269.593,1447.556 1186.34,1382.553 1112.145,1527.707 1112.164,1527.707 
				1093.819,1563.575 1102.494,1586.627 1102.476,1586.627 1141.477,1690.386 1149.213,1710.989 1198.805,1842.953 
				1212.84,1880.309 1225.591,1914.238 1225.591,2008.308 1225.591,2041.93 1296.053,2041.93 1341.911,1527.285 			"/>
			<polygon fill="#91469A" points="1225.591,1914.238 1212.84,1880.309 954.562,2041.93 1170.945,2041.93 1225.591,2008.308 			"/>
			<polygon fill="#91469A" points="906.58,1685.983 826.237,1920.136 841.785,1874.813 1141.477,1690.386 1102.476,1586.627 
				896.431,1715.586 			"/>
			<polygon fill="#91469A" points="937.023,1543.221 948.55,1563.65 920.403,1645.697 1112.145,1527.707 1186.34,1382.553 
				1182.835,1389.406 			"/>
			<polygon fill="#91469A" points="1152.277,1355.956 1016.37,1249.822 1003.713,1247.583 841.536,1374.223 933.232,1536.496 
				914.066,1502.549 			"/>
			<polygon fill="#91469A" points="1198.805,1842.953 1149.213,1710.989 1157.677,1733.488 826.237,1940.872 826.237,2041.93 
				866.083,2041.93 1197.043,1838.262 			"/>
			<polygon fill="#FFFFFF" points="747.638,1447.556 841.536,1374.223 1003.713,1247.583 1008.596,1243.772 694.179,955.74 
				747.427,1445.604 			"/>
			<polygon fill="#FFFFFF" points="1170.945,2041.93 1225.591,2041.93 1225.591,2008.308 			"/>
			<polygon fill="#FFFFFF" points="1198.805,1842.953 1197.043,1838.262 866.083,2041.93 954.562,2041.93 1212.84,1880.309 			"/>
			<polygon fill="#FFFFFF" points="826.237,1920.136 826.237,1940.872 1157.677,1733.488 1149.213,1710.989 1141.477,1690.386 
				841.785,1874.813 			"/>
			<polygon fill="#FFFFFF" points="920.403,1645.697 906.58,1685.983 896.431,1715.586 1102.476,1586.627 1102.494,1586.627 
				1093.819,1563.575 1112.164,1527.707 1112.145,1527.707 920.403,1645.697 			"/>
			<polygon fill="#FFFFFF" points="914.066,1502.549 933.232,1536.496 937.023,1543.221 937.023,1543.221 1182.835,1389.406 
				1186.34,1382.553 1152.277,1355.956 			"/>
			<polygon fill="#FFFFFF" points="1016.37,1249.822 1152.277,1355.956 1186.34,1382.553 1269.593,1447.556 1269.879,1444.819 
				1323.07,954.285 1009.189,1243.238 1008.596,1243.772 			"/>
		</g>
	</g>
</g>
</svg>
